<mxfile host="app.diagrams.net" modified="2023-09-10T20:57:50.639Z" agent="Mozilla/5.0 (Windows NT 10.0; Win64; x64) AppleWebKit/537.36 (KHTML, like Gecko) Chrome/116.0.0.0 Safari/537.36" etag="9mD7BGjMD_oW5wMsqYwt" version="21.7.2" type="github">
  <diagram name="Página-1" id="UJW3CL1oNEH-6RS_zqfz">
    <mxGraphModel dx="1114" dy="578" grid="1" gridSize="10" guides="1" tooltips="1" connect="1" arrows="1" fold="1" page="1" pageScale="1" pageWidth="827" pageHeight="1169" math="0" shadow="0">
      <root>
        <mxCell id="0" />
        <mxCell id="1" parent="0" />
        <mxCell id="6nEIMSCyheUqEFKd3A_u-1" value="" style="rounded=0;whiteSpace=wrap;html=1;" parent="1" vertex="1">
          <mxGeometry x="320" y="90" width="760" height="680" as="geometry" />
        </mxCell>
        <mxCell id="6nEIMSCyheUqEFKd3A_u-3" value="Voluntário" style="shape=umlActor;verticalLabelPosition=bottom;verticalAlign=top;html=1;" parent="1" vertex="1">
          <mxGeometry x="1140" y="125" width="30" height="60" as="geometry" />
        </mxCell>
        <mxCell id="6nEIMSCyheUqEFKd3A_u-4" value="Solicita Afiliação" style="ellipse;whiteSpace=wrap;html=1;" parent="1" vertex="1">
          <mxGeometry x="880" y="330" width="140" height="70" as="geometry" />
        </mxCell>
        <mxCell id="6nEIMSCyheUqEFKd3A_u-5" value="ONG&lt;br&gt;" style="shape=umlActor;verticalLabelPosition=bottom;verticalAlign=top;html=1;" parent="1" vertex="1">
          <mxGeometry x="1130" y="500" width="30" height="60" as="geometry" />
        </mxCell>
        <mxCell id="6nEIMSCyheUqEFKd3A_u-6" value="(Rede + Social)²" style="shape=umlActor;verticalLabelPosition=bottom;verticalAlign=top;html=1;" parent="1" vertex="1">
          <mxGeometry x="200" y="295" width="30" height="60" as="geometry" />
        </mxCell>
        <mxCell id="6nEIMSCyheUqEFKd3A_u-8" value="Avaliar Afiliação" style="ellipse;whiteSpace=wrap;html=1;" parent="1" vertex="1">
          <mxGeometry x="620" y="100" width="140" height="70" as="geometry" />
        </mxCell>
        <mxCell id="6nEIMSCyheUqEFKd3A_u-9" value="Aceite de Recomendação de ONG" style="ellipse;whiteSpace=wrap;html=1;" parent="1" vertex="1">
          <mxGeometry x="880" y="100" width="140" height="70" as="geometry" />
        </mxCell>
        <mxCell id="6nEIMSCyheUqEFKd3A_u-10" value="Recomenda ONG Parceiras" style="ellipse;whiteSpace=wrap;html=1;" parent="1" vertex="1">
          <mxGeometry x="547" y="350" width="140" height="70" as="geometry" />
        </mxCell>
        <mxCell id="6nEIMSCyheUqEFKd3A_u-11" value="Especifica Perfil do Voluntário" style="ellipse;whiteSpace=wrap;html=1;" parent="1" vertex="1">
          <mxGeometry x="490" y="225" width="140" height="70" as="geometry" />
        </mxCell>
        <mxCell id="6nEIMSCyheUqEFKd3A_u-12" value="Especifica Perfil de Voluntários" style="ellipse;whiteSpace=wrap;html=1;" parent="1" vertex="1">
          <mxGeometry x="890" y="590" width="140" height="70" as="geometry" />
        </mxCell>
        <mxCell id="6nEIMSCyheUqEFKd3A_u-13" value="Cidadão" style="shape=umlActor;verticalLabelPosition=bottom;verticalAlign=top;html=1;" parent="1" vertex="1">
          <mxGeometry x="230" y="530" width="30" height="60" as="geometry" />
        </mxCell>
        <mxCell id="6nEIMSCyheUqEFKd3A_u-16" value="" style="endArrow=none;html=1;rounded=0;" parent="1" source="6nEIMSCyheUqEFKd3A_u-3" target="6nEIMSCyheUqEFKd3A_u-4" edge="1">
          <mxGeometry width="50" height="50" relative="1" as="geometry">
            <mxPoint x="1370" y="30" as="sourcePoint" />
            <mxPoint x="1420" y="-20" as="targetPoint" />
          </mxGeometry>
        </mxCell>
        <mxCell id="6nEIMSCyheUqEFKd3A_u-17" value="" style="endArrow=none;html=1;rounded=0;" parent="1" source="6nEIMSCyheUqEFKd3A_u-6" target="6nEIMSCyheUqEFKd3A_u-8" edge="1">
          <mxGeometry width="50" height="50" relative="1" as="geometry">
            <mxPoint x="340" y="345" as="sourcePoint" />
            <mxPoint x="390" y="295" as="targetPoint" />
          </mxGeometry>
        </mxCell>
        <mxCell id="6nEIMSCyheUqEFKd3A_u-18" value="" style="endArrow=none;html=1;rounded=0;entryX=0.5;entryY=0.5;entryDx=0;entryDy=0;entryPerimeter=0;" parent="1" source="6nEIMSCyheUqEFKd3A_u-12" target="6nEIMSCyheUqEFKd3A_u-5" edge="1">
          <mxGeometry width="50" height="50" relative="1" as="geometry">
            <mxPoint x="1040" y="310" as="sourcePoint" />
            <mxPoint x="1090" y="260" as="targetPoint" />
          </mxGeometry>
        </mxCell>
        <mxCell id="6nEIMSCyheUqEFKd3A_u-31" value="Solicitação de atendimento" style="ellipse;whiteSpace=wrap;html=1;" parent="1" vertex="1">
          <mxGeometry x="370" y="525" width="140" height="70" as="geometry" />
        </mxCell>
        <mxCell id="6nEIMSCyheUqEFKd3A_u-32" value="" style="endArrow=none;html=1;rounded=0;entryX=0.5;entryY=0.5;entryDx=0;entryDy=0;entryPerimeter=0;" parent="1" source="6nEIMSCyheUqEFKd3A_u-31" target="6nEIMSCyheUqEFKd3A_u-13" edge="1">
          <mxGeometry width="50" height="50" relative="1" as="geometry">
            <mxPoint x="80" y="470" as="sourcePoint" />
            <mxPoint x="130" y="420" as="targetPoint" />
          </mxGeometry>
        </mxCell>
        <mxCell id="6nEIMSCyheUqEFKd3A_u-35" value="" style="endArrow=none;html=1;rounded=0;entryX=0.5;entryY=0.5;entryDx=0;entryDy=0;entryPerimeter=0;" parent="1" source="6nEIMSCyheUqEFKd3A_u-4" target="6nEIMSCyheUqEFKd3A_u-5" edge="1">
          <mxGeometry width="50" height="50" relative="1" as="geometry">
            <mxPoint x="930" y="200" as="sourcePoint" />
            <mxPoint x="980" y="150" as="targetPoint" />
          </mxGeometry>
        </mxCell>
        <mxCell id="6nEIMSCyheUqEFKd3A_u-36" value="&amp;lt;&amp;lt;extend&amp;gt;&amp;gt;" style="html=1;verticalAlign=bottom;labelBackgroundColor=none;endArrow=open;endFill=0;dashed=1;rounded=0;" parent="1" source="6nEIMSCyheUqEFKd3A_u-11" target="6nEIMSCyheUqEFKd3A_u-8" edge="1">
          <mxGeometry x="-0.4358" y="16" width="160" relative="1" as="geometry">
            <mxPoint x="340" y="360" as="sourcePoint" />
            <mxPoint x="500" y="360" as="targetPoint" />
            <mxPoint y="1" as="offset" />
          </mxGeometry>
        </mxCell>
        <mxCell id="6nEIMSCyheUqEFKd3A_u-38" value="&amp;lt;&amp;lt;include&amp;gt;&amp;gt;" style="html=1;verticalAlign=bottom;labelBackgroundColor=none;endArrow=open;endFill=0;dashed=1;rounded=0;" parent="1" source="6nEIMSCyheUqEFKd3A_u-4" target="6nEIMSCyheUqEFKd3A_u-8" edge="1">
          <mxGeometry width="160" relative="1" as="geometry">
            <mxPoint x="690" y="210" as="sourcePoint" />
            <mxPoint x="850" y="210" as="targetPoint" />
          </mxGeometry>
        </mxCell>
        <mxCell id="6nEIMSCyheUqEFKd3A_u-39" value="Especifica Perfil da ONG&lt;br&gt;" style="ellipse;whiteSpace=wrap;html=1;" parent="1" vertex="1">
          <mxGeometry x="670" y="270" width="140" height="70" as="geometry" />
        </mxCell>
        <mxCell id="6nEIMSCyheUqEFKd3A_u-41" value="&amp;lt;&amp;lt;extend&amp;gt;&amp;gt;" style="html=1;verticalAlign=bottom;labelBackgroundColor=none;endArrow=open;endFill=0;dashed=1;rounded=0;" parent="1" source="6nEIMSCyheUqEFKd3A_u-39" target="6nEIMSCyheUqEFKd3A_u-8" edge="1">
          <mxGeometry width="160" relative="1" as="geometry">
            <mxPoint x="710" y="220" as="sourcePoint" />
            <mxPoint x="870" y="220" as="targetPoint" />
          </mxGeometry>
        </mxCell>
        <mxCell id="6nEIMSCyheUqEFKd3A_u-42" value="&amp;lt;&amp;lt;include&amp;gt;&amp;gt;" style="html=1;verticalAlign=bottom;labelBackgroundColor=none;endArrow=open;endFill=0;dashed=1;rounded=0;" parent="1" source="6nEIMSCyheUqEFKd3A_u-11" target="6nEIMSCyheUqEFKd3A_u-10" edge="1">
          <mxGeometry width="160" relative="1" as="geometry">
            <mxPoint x="360" y="180" as="sourcePoint" />
            <mxPoint x="520" y="180" as="targetPoint" />
          </mxGeometry>
        </mxCell>
        <mxCell id="6nEIMSCyheUqEFKd3A_u-43" value="" style="endArrow=none;html=1;rounded=0;entryX=0.514;entryY=0.368;entryDx=0;entryDy=0;entryPerimeter=0;" parent="1" source="6nEIMSCyheUqEFKd3A_u-9" target="6nEIMSCyheUqEFKd3A_u-3" edge="1">
          <mxGeometry width="50" height="50" relative="1" as="geometry">
            <mxPoint x="1050" y="190" as="sourcePoint" />
            <mxPoint x="1100" y="140" as="targetPoint" />
          </mxGeometry>
        </mxCell>
        <mxCell id="6nEIMSCyheUqEFKd3A_u-44" value="" style="endArrow=none;html=1;rounded=0;" parent="1" source="6nEIMSCyheUqEFKd3A_u-6" target="BJpsQvUXnhUQ2NiaXVVP-2" edge="1">
          <mxGeometry width="50" height="50" relative="1" as="geometry">
            <mxPoint x="350" y="390" as="sourcePoint" />
            <mxPoint x="356.9696094038975" y="369.7752679719558" as="targetPoint" />
          </mxGeometry>
        </mxCell>
        <mxCell id="BJpsQvUXnhUQ2NiaXVVP-2" value="Busca voluntários" style="ellipse;whiteSpace=wrap;html=1;" parent="1" vertex="1">
          <mxGeometry x="344" y="300" width="140" height="70" as="geometry" />
        </mxCell>
        <mxCell id="BJpsQvUXnhUQ2NiaXVVP-3" value="Recomenda voluntários" style="ellipse;whiteSpace=wrap;html=1;" parent="1" vertex="1">
          <mxGeometry x="350" y="410" width="140" height="70" as="geometry" />
        </mxCell>
        <mxCell id="BJpsQvUXnhUQ2NiaXVVP-4" value="" style="endArrow=none;html=1;rounded=0;" parent="1" source="BJpsQvUXnhUQ2NiaXVVP-3" target="6nEIMSCyheUqEFKd3A_u-6" edge="1">
          <mxGeometry width="50" height="50" relative="1" as="geometry">
            <mxPoint x="360" y="460" as="sourcePoint" />
            <mxPoint x="410" y="410" as="targetPoint" />
          </mxGeometry>
        </mxCell>
        <mxCell id="BJpsQvUXnhUQ2NiaXVVP-5" value="Abrir Campanha Solidária" style="ellipse;whiteSpace=wrap;html=1;" parent="1" vertex="1">
          <mxGeometry x="880" y="420" width="140" height="70" as="geometry" />
        </mxCell>
        <mxCell id="BJpsQvUXnhUQ2NiaXVVP-6" value="Divulga Perfil de Voluntários" style="ellipse;whiteSpace=wrap;html=1;" parent="1" vertex="1">
          <mxGeometry x="880" y="500" width="140" height="70" as="geometry" />
        </mxCell>
        <mxCell id="BJpsQvUXnhUQ2NiaXVVP-7" value="" style="endArrow=none;html=1;rounded=0;exitX=0.929;exitY=0.714;exitDx=0;exitDy=0;exitPerimeter=0;" parent="1" source="BJpsQvUXnhUQ2NiaXVVP-5" target="6nEIMSCyheUqEFKd3A_u-5" edge="1">
          <mxGeometry width="50" height="50" relative="1" as="geometry">
            <mxPoint x="1020" y="550" as="sourcePoint" />
            <mxPoint x="1070" y="500" as="targetPoint" />
          </mxGeometry>
        </mxCell>
        <mxCell id="BJpsQvUXnhUQ2NiaXVVP-8" value="" style="endArrow=none;html=1;rounded=0;" parent="1" source="BJpsQvUXnhUQ2NiaXVVP-6" target="6nEIMSCyheUqEFKd3A_u-5" edge="1">
          <mxGeometry width="50" height="50" relative="1" as="geometry">
            <mxPoint x="1010" y="580" as="sourcePoint" />
            <mxPoint x="1060" y="530" as="targetPoint" />
          </mxGeometry>
        </mxCell>
        <mxCell id="BJpsQvUXnhUQ2NiaXVVP-9" value="Realiza Inscrição na Campanha" style="ellipse;whiteSpace=wrap;html=1;" parent="1" vertex="1">
          <mxGeometry x="880" y="200" width="140" height="70" as="geometry" />
        </mxCell>
        <mxCell id="BJpsQvUXnhUQ2NiaXVVP-10" value="" style="endArrow=none;html=1;rounded=0;" parent="1" source="BJpsQvUXnhUQ2NiaXVVP-9" target="6nEIMSCyheUqEFKd3A_u-3" edge="1">
          <mxGeometry width="50" height="50" relative="1" as="geometry">
            <mxPoint x="1040" y="230" as="sourcePoint" />
            <mxPoint x="1090" y="180" as="targetPoint" />
          </mxGeometry>
        </mxCell>
      </root>
    </mxGraphModel>
  </diagram>
</mxfile>
